<?xml version="1.0" encoding="UTF-8" standalone="no"?>
<!DOCTYPE svg PUBLIC "-//W3C//DTD SVG 1.1//EN"
 "http://www.w3.org/Graphics/SVG/1.1/DTD/svg11.dtd">
<!-- Generated by graphviz version 2.43.0 (0)
 -->
<!-- Title: Lab #1 Pages: 1 -->
<svg width="715pt" height="1170pt"
 viewBox="0.00 0.00 715.00 1170.00" xmlns="http://www.w3.org/2000/svg" xmlns:xlink="http://www.w3.org/1999/xlink">
<g id="graph0" class="graph" transform="scale(1 1) rotate(0) translate(144 1026)">
<title>Lab #1</title>
<polygon fill="white" stroke="transparent" points="-144,144 -144,-1026 571,-1026 571,144 -144,144"/>
<text text-anchor="middle" x="213.5" y="-9" font-family="Sans-Serif" font-size="15.00" fill="#2d3436">Lab #1</text>
<g id="clust1" class="cluster">
<title>cluster_Backends</title>
<path fill="#e5f5fd" stroke="#aeb6be" d="M314,-106.5C314,-106.5 407,-106.5 407,-106.5 413,-106.5 419,-112.5 419,-118.5 419,-118.5 419,-809.5 419,-809.5 419,-815.5 413,-821.5 407,-821.5 407,-821.5 314,-821.5 314,-821.5 308,-821.5 302,-815.5 302,-809.5 302,-809.5 302,-118.5 302,-118.5 302,-112.5 308,-106.5 314,-106.5"/>
<text text-anchor="middle" x="339" y="-807.9" font-family="Sans-Serif" font-size="12.00" fill="#2d3436">Backends</text>
</g>
<!-- 015f076b7ab94332a5d0b04f398a5c39 -->
<g id="node1" class="node">
<title>015f076b7ab94332a5d0b04f398a5c39</title>
<image xlink:href="/home/veldrane/.local/lib/python3.8/site-packages/resources/oci/devops/api-gateway.png" width="101px" height="101px" preserveAspectRatio="xMinYMin meet" x="155" y="-504"/>
<text text-anchor="middle" x="205.5" y="-388.6" font-family="Sans-Serif" font-size="13.00" fill="#2d3436">API Gateway</text>
</g>
<!-- 3103c20440b04101b4ec467b01a5ec0b -->
<g id="node7" class="node">
<title>3103c20440b04101b4ec467b01a5ec0b</title>
<image xlink:href="/home/veldrane/.local/lib/python3.8/site-packages/resources/programming/language/go.png" width="101px" height="101px" preserveAspectRatio="xMinYMin meet" x="310" y="-774"/>
<text text-anchor="middle" x="360.5" y="-658.6" font-family="Sans-Serif" font-size="13.00" fill="#2d3436">Microservice</text>
</g>
<!-- 015f076b7ab94332a5d0b04f398a5c39&#45;&gt;3103c20440b04101b4ec467b01a5ec0b -->
<g id="edge6" class="edge">
<title>015f076b7ab94332a5d0b04f398a5c39&#45;&gt;3103c20440b04101b4ec467b01a5ec0b</title>
<path fill="none" stroke="#7b8894" d="M231,-522.23C231,-588.4 231,-678.5 231,-678.5 231,-678.5 299.69,-678.5 299.69,-678.5"/>
<polygon fill="#7b8894" stroke="#7b8894" points="299.69,-682 309.69,-678.5 299.69,-675 299.69,-682"/>
</g>
<!-- 0e76fa260e1f4e43858799161cd21e3a -->
<g id="node8" class="node">
<title>0e76fa260e1f4e43858799161cd21e3a</title>
<image xlink:href="/home/veldrane/.local/lib/python3.8/site-packages/resources/programming/language/nodejs.png" width="101px" height="101px" preserveAspectRatio="xMinYMin meet" x="310" y="-594"/>
<text text-anchor="middle" x="360.5" y="-478.6" font-family="Sans-Serif" font-size="13.00" fill="#2d3436">Microservice</text>
</g>
<!-- 015f076b7ab94332a5d0b04f398a5c39&#45;&gt;0e76fa260e1f4e43858799161cd21e3a -->
<g id="edge7" class="edge">
<title>015f076b7ab94332a5d0b04f398a5c39&#45;&gt;0e76fa260e1f4e43858799161cd21e3a</title>
<path fill="none" stroke="#7b8894" d="M256.25,-498.5C256.25,-498.5 299.9,-498.5 299.9,-498.5"/>
<polygon fill="#7b8894" stroke="#7b8894" points="299.9,-502 309.9,-498.5 299.9,-495 299.9,-502"/>
</g>
<!-- 042fff064ac64a94b4635295f7f6549d -->
<g id="node9" class="node">
<title>042fff064ac64a94b4635295f7f6549d</title>
<image xlink:href="/home/veldrane/.local/lib/python3.8/site-packages/resources/programming/language/java.png" width="101px" height="101px" preserveAspectRatio="xMinYMin meet" x="310" y="-414"/>
<text text-anchor="middle" x="360.5" y="-298.6" font-family="Sans-Serif" font-size="13.00" fill="#2d3436">Microservice</text>
</g>
<!-- 015f076b7ab94332a5d0b04f398a5c39&#45;&gt;042fff064ac64a94b4635295f7f6549d -->
<g id="edge8" class="edge">
<title>015f076b7ab94332a5d0b04f398a5c39&#45;&gt;042fff064ac64a94b4635295f7f6549d</title>
<path fill="none" stroke="#7b8894" d="M256.25,-408.5C256.25,-408.5 299.9,-408.5 299.9,-408.5"/>
<polygon fill="#7b8894" stroke="#7b8894" points="299.9,-412 309.9,-408.5 299.9,-405 299.9,-412"/>
</g>
<!-- 98400503a84047a3a2e2a590658fad96 -->
<g id="node10" class="node">
<title>98400503a84047a3a2e2a590658fad96</title>
<image xlink:href="/home/veldrane/.local/lib/python3.8/site-packages/resources/programming/language/python.png" width="101px" height="101px" preserveAspectRatio="xMinYMin meet" x="310" y="-234"/>
<text text-anchor="middle" x="360.5" y="-118.6" font-family="Sans-Serif" font-size="13.00" fill="#2d3436">Microservice</text>
</g>
<!-- 015f076b7ab94332a5d0b04f398a5c39&#45;&gt;98400503a84047a3a2e2a590658fad96 -->
<g id="edge9" class="edge">
<title>015f076b7ab94332a5d0b04f398a5c39&#45;&gt;98400503a84047a3a2e2a590658fad96</title>
<path fill="none" stroke="#7b8894" d="M231,-384.77C231,-318.6 231,-228.5 231,-228.5 231,-228.5 299.69,-228.5 299.69,-228.5"/>
<polygon fill="#7b8894" stroke="#7b8894" points="299.69,-232 309.69,-228.5 299.69,-225 299.69,-232"/>
</g>
<!-- 2a6f0bff8a14480e8388ab1f0347acc9 -->
<g id="node2" class="node">
<title>2a6f0bff8a14480e8388ab1f0347acc9</title>
<image xlink:href="/home/veldrane/.local/lib/python3.8/site-packages/resources/generic/device/mobile.png" width="101px" height="101px" preserveAspectRatio="xMinYMin meet" x="0" y="-864"/>
<text text-anchor="middle" x="50.5" y="-748.6" font-family="Sans-Serif" font-size="13.00" fill="#2d3436">Mobile</text>
</g>
<!-- 2a6f0bff8a14480e8388ab1f0347acc9&#45;&gt;015f076b7ab94332a5d0b04f398a5c39 -->
<g id="edge1" class="edge">
<title>2a6f0bff8a14480e8388ab1f0347acc9&#45;&gt;015f076b7ab94332a5d0b04f398a5c39</title>
<path fill="none" stroke="#7b8894" d="M101.42,-768.5C146.77,-768.5 206,-768.5 206,-768.5 206,-768.5 206,-532.24 206,-532.24"/>
<polygon fill="#7b8894" stroke="#7b8894" points="209.5,-532.24 206,-522.24 202.5,-532.24 209.5,-532.24"/>
</g>
<!-- 8df99d386d3f42ba914ea34cc0e983c9 -->
<g id="node3" class="node">
<title>8df99d386d3f42ba914ea34cc0e983c9</title>
<image xlink:href="/home/veldrane/.local/lib/python3.8/site-packages/resources/generic/device/tablet.png" width="101px" height="101px" preserveAspectRatio="xMinYMin meet" x="0" y="-684"/>
<text text-anchor="middle" x="50.5" y="-568.6" font-family="Sans-Serif" font-size="13.00" fill="#2d3436">Mobile</text>
</g>
<!-- 8df99d386d3f42ba914ea34cc0e983c9&#45;&gt;015f076b7ab94332a5d0b04f398a5c39 -->
<g id="edge2" class="edge">
<title>8df99d386d3f42ba914ea34cc0e983c9&#45;&gt;015f076b7ab94332a5d0b04f398a5c39</title>
<path fill="none" stroke="#7b8894" d="M101.33,-588.5C137.97,-588.5 181,-588.5 181,-588.5 181,-588.5 181,-532.19 181,-532.19"/>
<polygon fill="#7b8894" stroke="#7b8894" points="184.5,-532.19 181,-522.19 177.5,-532.19 184.5,-532.19"/>
</g>
<!-- d7fbf7a2c7a24c4e9f7b244c2f409463 -->
<g id="node4" class="node">
<title>d7fbf7a2c7a24c4e9f7b244c2f409463</title>
<image xlink:href="/home/veldrane/.local/lib/python3.8/site-packages/resources/generic/os/windows.png" width="101px" height="101px" preserveAspectRatio="xMinYMin meet" x="0" y="-504"/>
<text text-anchor="middle" x="50.5" y="-388.6" font-family="Sans-Serif" font-size="13.00" fill="#2d3436">Desktop</text>
</g>
<!-- d7fbf7a2c7a24c4e9f7b244c2f409463&#45;&gt;015f076b7ab94332a5d0b04f398a5c39 -->
<g id="edge3" class="edge">
<title>d7fbf7a2c7a24c4e9f7b244c2f409463&#45;&gt;015f076b7ab94332a5d0b04f398a5c39</title>
<path fill="none" stroke="#7b8894" d="M101.25,-453.5C101.25,-453.5 144.9,-453.5 144.9,-453.5"/>
<polygon fill="#7b8894" stroke="#7b8894" points="144.9,-457 154.9,-453.5 144.9,-450 144.9,-457"/>
</g>
<!-- bc866b6bbd944071919c388a3e945a31 -->
<g id="node5" class="node">
<title>bc866b6bbd944071919c388a3e945a31</title>
<image xlink:href="/home/veldrane/.local/lib/python3.8/site-packages/resources/generic/os/linux-general.png" width="101px" height="101px" preserveAspectRatio="xMinYMin meet" x="0" y="-324"/>
<text text-anchor="middle" x="50.5" y="-208.6" font-family="Sans-Serif" font-size="13.00" fill="#2d3436">Desktop</text>
</g>
<!-- bc866b6bbd944071919c388a3e945a31&#45;&gt;015f076b7ab94332a5d0b04f398a5c39 -->
<g id="edge4" class="edge">
<title>bc866b6bbd944071919c388a3e945a31&#45;&gt;015f076b7ab94332a5d0b04f398a5c39</title>
<path fill="none" stroke="#7b8894" d="M101.33,-318.5C137.97,-318.5 181,-318.5 181,-318.5 181,-318.5 181,-374.81 181,-374.81"/>
<polygon fill="#7b8894" stroke="#7b8894" points="177.5,-374.81 181,-384.81 184.5,-374.81 177.5,-374.81"/>
</g>
<!-- eaad98855f68497ea454fb4e99adb8c9 -->
<g id="node6" class="node">
<title>eaad98855f68497ea454fb4e99adb8c9</title>
<image xlink:href="/home/veldrane/.local/lib/python3.8/site-packages/resources/generic/os/ios.png" width="101px" height="101px" preserveAspectRatio="xMinYMin meet" x="0" y="-144"/>
<text text-anchor="middle" x="50.5" y="-28.6" font-family="Sans-Serif" font-size="13.00" fill="#2d3436">Desktop</text>
</g>
<!-- eaad98855f68497ea454fb4e99adb8c9&#45;&gt;015f076b7ab94332a5d0b04f398a5c39 -->
<g id="edge5" class="edge">
<title>eaad98855f68497ea454fb4e99adb8c9&#45;&gt;015f076b7ab94332a5d0b04f398a5c39</title>
<path fill="none" stroke="#7b8894" d="M101.42,-138.5C146.77,-138.5 206,-138.5 206,-138.5 206,-138.5 206,-374.76 206,-374.76"/>
<polygon fill="#7b8894" stroke="#7b8894" points="202.5,-374.76 206,-384.76 209.5,-374.76 202.5,-374.76"/>
</g>
</g>
</svg>
